<svg width="88" height="24" viewBox="0 0 88 24" fill="none" xmlns="http://www.w3.org/2000/svg">
<path d="M9.86807 3.96997V23.9551H6.10754V3.96997H0.400391V0H12.8323L14.6019 3.96997H9.86807Z" fill="#ECEDF9"/>
<path d="M16.3721 8.0299L19.9114 15.9247L24.1144 8.12013C24.2029 7.93968 24.4241 7.93968 24.5126 8.12013L28.7597 15.9247L32.2991 8.0299H36.325L28.7155 24L24.3798 13.7593L19.9999 24L12.3904 8.0299H16.3721Z" fill="#ECEDF9"/>
<path d="M49.9495 16.8274H39.3316C39.42 18.0454 39.8182 19.0379 40.5261 19.8049C41.2339 20.5267 42.1188 20.8876 43.2248 20.8876C44.0654 20.8876 44.7733 20.662 45.3484 20.256C45.8793 19.85 46.4987 19.083 47.2065 17.9552L50.0822 19.5793C49.6398 20.3462 49.1532 21.0229 48.6665 21.5643C48.1799 22.1056 47.649 22.5568 47.0738 22.9177C46.4987 23.2786 45.8793 23.5493 45.2157 23.6846C44.552 23.8199 43.8442 23.9102 43.0921 23.9102C40.88 23.9102 39.1103 23.1884 37.7831 21.7447C36.4559 20.3011 35.7922 18.3612 35.7922 15.9702C35.7922 13.5792 36.4559 11.6394 37.7389 10.1957C39.0661 8.75212 40.7915 8.0303 42.9151 8.0303C45.083 8.0303 46.8084 8.75212 48.0914 10.1506C49.3301 11.5491 49.9938 13.489 49.9938 15.9702L49.9495 16.8274ZM46.4544 13.9853C45.9678 12.1356 44.8175 11.1882 43.0036 11.1882C42.6054 11.1882 42.2072 11.2334 41.8533 11.3687C41.4994 11.504 41.1455 11.6845 40.88 11.91C40.5703 12.1356 40.3049 12.4514 40.1279 12.7672C39.9067 13.1281 39.774 13.489 39.6412 13.9401H46.4544V13.9853Z" fill="#ECEDF9"/>
<path d="M56.6753 11.4582V23.9546H53.0475V11.4582H51.499V8.02959H53.0475V4.01451H56.6753V8.02959H58.4007L59.9491 11.4582H56.6753Z" fill="#ECEDF9"/>
<path d="M71.9389 9.06751V13.7142C71.1426 12.7217 70.4789 12.0901 69.8595 11.7292C69.2402 11.3683 68.5323 11.1878 67.6917 11.1878C66.4087 11.1878 65.3469 11.639 64.4621 12.5863C63.5773 13.5337 63.1791 14.6616 63.1791 16.0601C63.1791 17.4586 63.5773 18.6315 64.4179 19.5338C65.2584 20.436 66.3202 20.8872 67.6032 20.8872C68.4438 20.8872 69.1517 20.7067 69.7711 20.3458C70.3905 19.9849 71.0983 19.3082 71.9389 18.3157V22.9173C70.5674 23.6391 69.1517 24 67.7802 24C65.4797 24 63.5773 23.2331 62.0288 21.7443C60.4804 20.2105 59.7283 18.3157 59.7283 16.0601C59.7283 13.8044 60.5246 11.9096 62.0731 10.3307C63.6215 8.79682 65.5681 7.98479 67.8245 7.98479C69.2844 8.02991 70.6559 8.3457 71.9389 9.06751Z" fill="#ECEDF9"/>
<path d="M74.46 4.01451H77.9993V9.69879C79.2381 8.57096 80.6538 7.98449 82.158 7.98449C83.8834 7.98449 85.2549 8.57096 86.2725 9.69879C87.1573 10.6913 87.5997 12.2702 87.5997 14.4357V23.9546H84.0604V14.7515C84.0604 13.4883 83.8392 12.586 83.3968 12.0447C82.9544 11.5033 82.2465 11.1875 81.3174 11.1875C80.0787 11.1875 79.2381 11.5935 78.7072 12.3605C78.2205 13.1274 77.9551 14.4808 77.9551 16.4207V23.9546H74.4158V4.01451H74.46Z" fill="#ECEDF9"/>
</svg>
